<svg width="138" height="38" viewBox="0 0 138 38" fill="none" xmlns="http://www.w3.org/2000/svg">
<g clip-path="url(#clip0_246_25)">
<path d="M0.00106611 1.16455H4.29237V18.0563C4.29237 19.6809 5.30466 19.6499 6.19321 19.6499H13.8873V23.6051H4.65931C2.23579 23.6051 0 22.6857 0 19.2521L0.00106611 1.16455Z" fill="#15192F"/>
<path d="M16.522 1.16455H26.0561C32.4936 1.16455 33.8429 6.92456 33.8429 12.4713C33.8429 19.0622 31.5165 23.5987 26.0561 23.5987H16.522V1.16455ZM25.719 19.7758C28.5084 19.7758 29.5506 16.9566 29.5506 12.4489C29.5506 6.43922 28.1105 4.96829 25.719 4.96829H20.8122V19.7726L25.719 19.7758Z" fill="#15192F"/>
<path d="M36.8149 1.16455H41.1681L50.0589 15.6649V1.16455H54.3502V23.6041H50.0589L41.1414 9.25843V23.6041H36.8192L36.8149 1.16455Z" fill="#15192F"/>
<path d="M64.344 1.16455H69.2188L76.515 23.6041H71.9484L70.3537 18.6377H62.9936L61.369 23.6041H56.7705L64.344 1.16455ZM69.3404 14.8371L66.8262 6.80509L64.1286 14.8371H69.3404Z" fill="#15192F"/>
<path d="M86.1375 6.77555C86.1375 2.33075 88.7744 1.04329 92.207 0.982486C95.1247 0.911174 98.0397 1.20973 100.882 1.87102V5.24275C98.9208 5.05822 94.4748 4.93662 93.3719 4.93662C91.502 4.90569 90.4288 5.03369 90.4288 7.11369V8.21875C90.4288 9.99688 91.1073 10.3649 92.8204 10.3649H96.3767C100.791 10.3649 101.68 13.8294 101.68 16.3115V17.8145C101.68 22.9036 98.5218 23.8529 95.4871 23.8529C92.5661 23.9664 89.644 23.6567 86.8117 22.9334V19.5596C88.0384 19.6812 91.7771 19.8966 94.6295 19.8966C95.917 19.8966 97.3879 19.6833 97.3879 17.9649V16.7702C97.3879 15.4827 97.021 14.655 95.3613 14.655H91.9276C86.4992 14.655 86.1333 10.6699 86.1333 8.70835L86.1375 6.77555Z" fill="#FF6700"/>
<path d="M111.768 0H116.213L107.598 25.8133H103.153L111.768 0Z" fill="#FF6700"/>
<path d="M125.284 1.16455H130.158L137.454 23.6041H132.882L131.287 18.6377H123.927L122.303 23.6041H117.704L125.284 1.16455ZM130.281 14.8371L127.768 6.80509L125.071 14.8371H130.281Z" fill="#FF6700"/>
<path d="M5.53497 29.0962H7.28968L9.91587 37.173H8.26784L7.69396 35.3853H5.04962L4.46828 37.173H2.80957L5.53497 29.0962ZM7.33448 34.0179L6.42992 31.1272L5.4603 34.0179H7.33448Z" fill="#918D8C"/>
<path d="M16.0965 29.0092C17.142 28.9817 18.1861 29.1009 19.1985 29.3633V30.5665C19.1323 30.5665 17.72 30.3788 16.4624 30.3788C15.2368 30.3788 15.0085 31.118 15.0085 33.1148C15.0085 35.2119 15.2506 35.774 16.3877 35.7815C16.8917 35.7617 17.3768 35.584 17.7744 35.2737V33.8284H16.6491V32.846C17.2668 32.638 17.9182 32.5483 18.5691 32.5815C18.8006 32.5815 19.0534 32.5815 19.3158 32.6039V37.1724H18.215L17.7958 36.6316C17.565 36.8392 17.2953 36.9988 17.0023 37.1012C16.7093 37.2036 16.3989 37.2466 16.0891 37.2279C13.8053 37.3164 13.4629 35.3964 13.4629 33.0903C13.4586 30.7415 13.9034 29.0092 16.0965 29.0092Z" fill="#918D8C"/>
<path d="M23.6665 30.7777C23.6454 30.5454 23.677 30.3114 23.7589 30.093C23.8408 29.8746 23.971 29.6774 24.1396 29.5163C24.3082 29.3551 24.5111 29.2341 24.733 29.1622C24.9548 29.0903 25.1901 29.0693 25.4212 29.1009C25.4212 29.1009 28.2682 29.1788 28.9733 29.2769V30.5569H25.7839C25.21 30.5569 25.21 30.8769 25.21 31.1756V32.4353L28.4762 32.542V33.8156L25.21 33.9127V35.1724C25.21 35.7538 25.5748 35.7463 25.8948 35.7463H28.9733V37.0145C28.344 37.1031 25.53 37.2012 25.53 37.2012C24.8132 37.2343 23.6654 37.0689 23.6654 35.5799L23.6665 30.7777ZM26.0132 26.894H27.161L28.2277 28.3873H27.2015L26.5498 27.7249L25.8543 28.3873H24.8175L26.0132 26.894Z" fill="#918D8C"/>
<path d="M33.2124 29.0962H34.7794L37.9794 34.3154V29.0962H39.5219V37.1762H37.9805L34.7719 32.0125V37.1762H33.2199L33.2124 29.0962Z" fill="#918D8C"/>
<path d="M46.4918 29.009C47.4418 28.9887 48.3893 29.1117 49.3026 29.3738V30.5876C49.2919 30.5876 47.9351 30.4341 46.8492 30.4341C45.7131 30.4341 45.2833 30.6879 45.2833 33.137C45.2833 34.9503 45.5809 35.8186 46.8492 35.8186C48.0119 35.8186 49.3026 35.73 49.3026 35.73V36.9332C48.3882 37.1859 47.4393 37.2904 46.4918 37.2426C44.4502 37.2202 43.7451 35.6767 43.7451 33.1167C43.7408 30.5311 44.2923 29.009 46.4918 29.009Z" fill="#918D8C"/>
<path d="M53.5063 29.0962H55.0552V37.1762H53.5106L53.5063 29.0962Z" fill="#918D8C"/>
<path d="M61.8905 29.0962H63.6452L66.2714 37.173H64.6234L64.0495 35.3853H61.401L60.8239 37.1762H59.1694L61.8905 29.0962ZM63.689 34.0179L62.7844 31.1272L61.8148 34.0179H63.689Z" fill="#918D8C"/>
<path d="M76.3706 29.0962H79.8022C82.119 29.0962 82.6044 31.1709 82.6044 33.1677C82.6044 35.54 81.766 37.173 79.8022 37.173H76.3706V29.0962ZM79.6774 35.7928C80.6812 35.7928 81.0566 34.7784 81.0566 33.156C81.0566 30.9938 80.5383 30.4637 79.6774 30.4637H77.912V35.797L79.6774 35.7928Z" fill="#918D8C"/>
<path d="M86.9321 29.0962H88.4778V37.1762H86.9321V29.0962Z" fill="#918D8C"/>
<path d="M95.3184 29.0092C96.3639 28.9817 97.408 29.1009 98.4203 29.3633V30.5665C98.3542 30.5665 96.9419 30.3788 95.6843 30.3788C94.4597 30.3788 94.2304 31.118 94.2304 33.1148C94.2304 35.2119 94.4725 35.774 95.6096 35.7815C96.1137 35.7617 96.5987 35.584 96.9963 35.2737V33.8284H95.871V32.846C96.4887 32.638 97.1401 32.5483 97.791 32.5815C98.0225 32.5815 98.2753 32.5815 98.5377 32.6039V37.1724H97.4348L97.0155 36.6316C96.7849 36.8393 96.5151 36.999 96.2221 37.1013C95.9291 37.2037 95.6186 37.2467 95.3088 37.2278C93.025 37.3164 92.6826 35.3964 92.6826 33.0902C92.6816 30.7414 93.1242 29.0092 95.3184 29.0092Z" fill="#918D8C"/>
<path d="M102.923 29.0962H104.469V37.1762H102.923V29.0962Z" fill="#918D8C"/>
<path d="M108.551 29.0962H114.524V30.5192H112.284V37.1762H110.74V30.5234H108.555L108.551 29.0962Z" fill="#918D8C"/>
<path d="M119.839 29.0962H121.593L124.219 37.173H122.571L121.998 35.3853H119.354L118.773 37.173H117.117L119.839 29.0962ZM121.638 34.0179L120.732 31.1272L119.763 34.0179H121.638Z" fill="#918D8C"/>
<path d="M128.305 29.0962H129.849V35.1762C129.849 35.7576 130.214 35.7501 130.534 35.7501H133.308V37.1762H129.979C129.107 37.1762 128.303 36.8456 128.303 35.6104L128.305 29.0962Z" fill="#918D8C"/>
</g>
<defs>
<clipPath id="clip0_246_25">
<rect width="138" height="38" fill="white"/>
</clipPath>
</defs>
</svg>
